<mxfile host="app.diagrams.net" modified="2022-02-01T07:41:13.137Z" agent="5.0 (Windows NT 10.0; Win64; x64) AppleWebKit/537.36 (KHTML, like Gecko) Chrome/97.0.4692.99 Safari/537.36" etag="aJkPsa1YCobeeIdKwB17" version="16.5.2" type="github">
  <diagram id="J7m8c0r84CtwlsQY7pE0" name="Page-1">
    <mxGraphModel dx="711" dy="381" grid="1" gridSize="10" guides="1" tooltips="1" connect="1" arrows="1" fold="1" page="1" pageScale="1" pageWidth="827" pageHeight="1169" math="0" shadow="0">
      <root>
        <mxCell id="0" />
        <mxCell id="1" parent="0" />
        <mxCell id="CtK_7Bi6tQCIyEXWH96h-1" value="New" style="text;html=1;strokeColor=none;fillColor=none;align=center;verticalAlign=middle;whiteSpace=wrap;rounded=0;fontColor=#095C86;" vertex="1" parent="1">
          <mxGeometry x="320" y="50" width="60" height="30" as="geometry" />
        </mxCell>
        <mxCell id="CtK_7Bi6tQCIyEXWH96h-38" style="edgeStyle=orthogonalEdgeStyle;curved=0;rounded=1;sketch=0;orthogonalLoop=1;jettySize=auto;html=1;fontSize=13;fontColor=#095C86;strokeColor=#60E696;fillColor=#F694C1;exitX=1;exitY=1;exitDx=0;exitDy=0;exitPerimeter=0;" edge="1" parent="1" source="CtK_7Bi6tQCIyEXWH96h-3" target="CtK_7Bi6tQCIyEXWH96h-24">
          <mxGeometry relative="1" as="geometry" />
        </mxCell>
        <mxCell id="CtK_7Bi6tQCIyEXWH96h-3" value="" style="strokeWidth=2;html=1;shape=mxgraph.flowchart.annotation_2;align=left;labelPosition=right;pointerEvents=1;rotation=90;fillColor=#F694C1;strokeColor=#AF45ED;fontColor=#095C86;" vertex="1" parent="1">
          <mxGeometry x="327.5" y="47.5" width="45" height="100" as="geometry" />
        </mxCell>
        <mxCell id="CtK_7Bi6tQCIyEXWH96h-4" value="*" style="text;html=1;strokeColor=none;fillColor=none;align=center;verticalAlign=middle;whiteSpace=wrap;rounded=0;sketch=0;fontColor=#095C86;fontSize=30;" vertex="1" parent="1">
          <mxGeometry x="370" y="80" width="30" height="20" as="geometry" />
        </mxCell>
        <mxCell id="CtK_7Bi6tQCIyEXWH96h-7" value="Trajectory is not saved. Save?" style="rounded=0;whiteSpace=wrap;html=1;sketch=0;fontSize=13;fontColor=#095C86;strokeColor=#AF45ED;fillColor=#F694C1;" vertex="1" parent="1">
          <mxGeometry x="340" y="120" width="120" height="30" as="geometry" />
        </mxCell>
        <mxCell id="CtK_7Bi6tQCIyEXWH96h-39" style="edgeStyle=orthogonalEdgeStyle;curved=0;rounded=1;sketch=0;orthogonalLoop=1;jettySize=auto;html=1;fontSize=13;fontColor=#095C86;strokeColor=#60E696;fillColor=#F694C1;exitX=1;exitY=1;exitDx=0;exitDy=0;exitPerimeter=0;" edge="1" parent="1" source="CtK_7Bi6tQCIyEXWH96h-8" target="CtK_7Bi6tQCIyEXWH96h-24">
          <mxGeometry relative="1" as="geometry" />
        </mxCell>
        <mxCell id="CtK_7Bi6tQCIyEXWH96h-8" value="" style="strokeWidth=2;html=1;shape=mxgraph.flowchart.annotation_2;align=left;labelPosition=right;pointerEvents=1;rotation=90;fillColor=#F694C1;strokeColor=#AF45ED;fontColor=#095C86;" vertex="1" parent="1">
          <mxGeometry x="363.75" y="133.75" width="72.5" height="100" as="geometry" />
        </mxCell>
        <mxCell id="CtK_7Bi6tQCIyEXWH96h-9" value="Yes" style="text;html=1;strokeColor=none;fillColor=none;align=center;verticalAlign=middle;whiteSpace=wrap;rounded=0;sketch=0;fontSize=13;fontColor=#095C86;" vertex="1" parent="1">
          <mxGeometry x="400" y="160" width="60" height="30" as="geometry" />
        </mxCell>
        <mxCell id="CtK_7Bi6tQCIyEXWH96h-10" value="No" style="text;html=1;strokeColor=none;fillColor=none;align=center;verticalAlign=middle;whiteSpace=wrap;rounded=0;sketch=0;fontSize=13;fontColor=#095C86;" vertex="1" parent="1">
          <mxGeometry x="340" y="160" width="60" height="30" as="geometry" />
        </mxCell>
        <mxCell id="CtK_7Bi6tQCIyEXWH96h-60" value="saveTrajectory()" style="edgeStyle=orthogonalEdgeStyle;curved=0;rounded=1;sketch=0;orthogonalLoop=1;jettySize=auto;html=1;entryX=1;entryY=0.5;entryDx=0;entryDy=0;fontSize=13;fontColor=#095C86;strokeColor=#60E696;fillColor=#F694C1;exitX=1;exitY=1;exitDx=0;exitDy=0;exitPerimeter=0;" edge="1" parent="1" source="CtK_7Bi6tQCIyEXWH96h-12" target="CtK_7Bi6tQCIyEXWH96h-25">
          <mxGeometry relative="1" as="geometry" />
        </mxCell>
        <mxCell id="CtK_7Bi6tQCIyEXWH96h-12" value="" style="strokeWidth=2;html=1;shape=mxgraph.flowchart.annotation_2;align=left;labelPosition=right;pointerEvents=1;rotation=90;fillColor=#F694C1;strokeColor=#AF45ED;fontColor=#095C86;" vertex="1" parent="1">
          <mxGeometry x="422.25" y="191.75" width="56" height="100" as="geometry" />
        </mxCell>
        <mxCell id="CtK_7Bi6tQCIyEXWH96h-13" value="Untitled" style="text;html=1;strokeColor=none;fillColor=none;align=center;verticalAlign=middle;whiteSpace=wrap;rounded=0;sketch=0;fontSize=13;fontColor=#095C86;" vertex="1" parent="1">
          <mxGeometry x="450" y="210" width="60" height="30" as="geometry" />
        </mxCell>
        <mxCell id="CtK_7Bi6tQCIyEXWH96h-14" value="Name" style="text;html=1;strokeColor=none;fillColor=none;align=center;verticalAlign=middle;whiteSpace=wrap;rounded=0;sketch=0;fontSize=13;fontColor=#095C86;" vertex="1" parent="1">
          <mxGeometry x="390" y="210" width="60" height="30" as="geometry" />
        </mxCell>
        <mxCell id="CtK_7Bi6tQCIyEXWH96h-15" value="Enter a new name for trajectory" style="rounded=0;whiteSpace=wrap;html=1;sketch=0;fontSize=13;fontColor=#095C86;strokeColor=#AF45ED;fillColor=#F694C1;" vertex="1" parent="1">
          <mxGeometry x="450" y="270" width="120" height="30" as="geometry" />
        </mxCell>
        <mxCell id="CtK_7Bi6tQCIyEXWH96h-56" value="doesn&#39;t save" style="edgeStyle=orthogonalEdgeStyle;curved=0;rounded=1;sketch=0;orthogonalLoop=1;jettySize=auto;html=1;fontSize=13;fontColor=#861138;strokeColor=#E6122F;fillColor=#F694C1;exitX=1;exitY=1;exitDx=0;exitDy=0;exitPerimeter=0;" edge="1" parent="1" source="CtK_7Bi6tQCIyEXWH96h-16" target="CtK_7Bi6tQCIyEXWH96h-24">
          <mxGeometry relative="1" as="geometry">
            <Array as="points">
              <mxPoint x="460" y="365" />
            </Array>
          </mxGeometry>
        </mxCell>
        <mxCell id="CtK_7Bi6tQCIyEXWH96h-16" value="" style="strokeWidth=2;html=1;shape=mxgraph.flowchart.annotation_2;align=left;labelPosition=right;pointerEvents=1;rotation=90;fillColor=#F694C1;strokeColor=#AF45ED;fontColor=#095C86;" vertex="1" parent="1">
          <mxGeometry x="482" y="280" width="56" height="100" as="geometry" />
        </mxCell>
        <mxCell id="CtK_7Bi6tQCIyEXWH96h-17" value="Ok" style="text;html=1;strokeColor=none;fillColor=none;align=center;verticalAlign=middle;whiteSpace=wrap;rounded=0;sketch=0;fontSize=13;fontColor=#095C86;" vertex="1" parent="1">
          <mxGeometry x="510" y="300" width="60" height="30" as="geometry" />
        </mxCell>
        <mxCell id="CtK_7Bi6tQCIyEXWH96h-18" value="Cancel" style="text;html=1;strokeColor=none;fillColor=none;align=center;verticalAlign=middle;whiteSpace=wrap;rounded=0;sketch=0;fontSize=13;fontColor=#095C86;" vertex="1" parent="1">
          <mxGeometry x="450" y="300" width="60" height="30" as="geometry" />
        </mxCell>
        <mxCell id="CtK_7Bi6tQCIyEXWH96h-57" value="dd" style="edgeStyle=orthogonalEdgeStyle;curved=0;rounded=1;sketch=0;orthogonalLoop=1;jettySize=auto;html=1;fontSize=13;fontColor=#095C86;strokeColor=#60E696;fillColor=#F694C1;exitX=1;exitY=1;exitDx=0;exitDy=0;exitPerimeter=0;entryX=0.429;entryY=0.978;entryDx=0;entryDy=0;entryPerimeter=0;" edge="1" parent="1" source="CtK_7Bi6tQCIyEXWH96h-20" target="CtK_7Bi6tQCIyEXWH96h-51">
          <mxGeometry relative="1" as="geometry" />
        </mxCell>
        <mxCell id="CtK_7Bi6tQCIyEXWH96h-20" value="" style="strokeWidth=2;html=1;shape=mxgraph.flowchart.annotation_2;align=left;labelPosition=right;pointerEvents=1;rotation=90;fillColor=#F694C1;strokeColor=#AF45ED;fontColor=#095C86;" vertex="1" parent="1">
          <mxGeometry x="532" y="330" width="56" height="100" as="geometry" />
        </mxCell>
        <mxCell id="CtK_7Bi6tQCIyEXWH96h-21" value="This name is used. Resave?" style="rounded=0;whiteSpace=wrap;html=1;sketch=0;fontSize=13;fontColor=#095C86;strokeColor=#AF45ED;fillColor=#F694C1;" vertex="1" parent="1">
          <mxGeometry x="560" y="410" width="120" height="30" as="geometry" />
        </mxCell>
        <mxCell id="CtK_7Bi6tQCIyEXWH96h-22" value="Yes" style="text;html=1;strokeColor=none;fillColor=none;align=center;verticalAlign=middle;whiteSpace=wrap;rounded=0;sketch=0;fontSize=13;fontColor=#095C86;" vertex="1" parent="1">
          <mxGeometry x="560" y="440" width="60" height="30" as="geometry" />
        </mxCell>
        <mxCell id="CtK_7Bi6tQCIyEXWH96h-24" value="NewTrajectory" style="swimlane;fontStyle=0;childLayout=stackLayout;horizontal=1;startSize=30;horizontalStack=0;resizeParent=1;resizeParentMax=0;resizeLast=0;collapsible=1;marginBottom=0;rounded=0;sketch=0;fontSize=13;strokeColor=#6c8ebf;fillColor=#dae8fc;metaEdit=1;arcSize=15;swimlaneLine=1;glass=0;shadow=0;" vertex="1" parent="1">
          <mxGeometry x="20" y="260" width="200" height="210" as="geometry">
            <mxRectangle x="130" y="133.75" width="120" height="30" as="alternateBounds" />
          </mxGeometry>
        </mxCell>
        <mxCell id="CtK_7Bi6tQCIyEXWH96h-25" value="model.clear()" style="text;strokeColor=none;fillColor=none;align=left;verticalAlign=middle;spacingLeft=4;spacingRight=4;overflow=hidden;points=[[0,0.5],[1,0.5]];portConstraint=eastwest;rotatable=0;rounded=0;sketch=0;fontSize=13;fontColor=#095C86;" vertex="1" parent="CtK_7Bi6tQCIyEXWH96h-24">
          <mxGeometry y="30" width="200" height="30" as="geometry" />
        </mxCell>
        <mxCell id="CtK_7Bi6tQCIyEXWH96h-26" value="clearTrajectory()" style="text;strokeColor=none;fillColor=none;align=left;verticalAlign=middle;spacingLeft=4;spacingRight=4;overflow=hidden;points=[[0,0.5],[1,0.5]];portConstraint=eastwest;rotatable=0;rounded=0;sketch=0;fontSize=13;fontColor=#095C86;" vertex="1" parent="CtK_7Bi6tQCIyEXWH96h-24">
          <mxGeometry y="60" width="200" height="30" as="geometry" />
        </mxCell>
        <mxCell id="CtK_7Bi6tQCIyEXWH96h-34" value="titleName = Untitled" style="text;strokeColor=none;fillColor=none;align=left;verticalAlign=middle;spacingLeft=4;spacingRight=4;overflow=hidden;points=[[0,0.5],[1,0.5]];portConstraint=eastwest;rotatable=0;rounded=0;sketch=0;fontSize=13;fontColor=#095C86;" vertex="1" parent="CtK_7Bi6tQCIyEXWH96h-24">
          <mxGeometry y="90" width="200" height="30" as="geometry" />
        </mxCell>
        <mxCell id="CtK_7Bi6tQCIyEXWH96h-27" value="StartStopToolBar = disabled" style="text;strokeColor=none;fillColor=none;align=left;verticalAlign=middle;spacingLeft=4;spacingRight=4;overflow=hidden;points=[[0,0.5,0,0,0],[1,0.5,0,0,0]];portConstraint=eastwest;rotatable=0;rounded=0;sketch=0;fontSize=13;fontColor=#095C86;" vertex="1" parent="CtK_7Bi6tQCIyEXWH96h-24">
          <mxGeometry y="120" width="200" height="30" as="geometry" />
        </mxCell>
        <mxCell id="CtK_7Bi6tQCIyEXWH96h-35" value="SaveButton = disabled" style="text;strokeColor=none;fillColor=none;align=left;verticalAlign=middle;spacingLeft=4;spacingRight=4;overflow=hidden;points=[[0,0.5],[1,0.5]];portConstraint=eastwest;rotatable=0;rounded=0;sketch=0;fontSize=13;fontColor=#095C86;" vertex="1" parent="CtK_7Bi6tQCIyEXWH96h-24">
          <mxGeometry y="150" width="200" height="30" as="geometry" />
        </mxCell>
        <mxCell id="CtK_7Bi6tQCIyEXWH96h-36" value="NewButton = disabled" style="text;strokeColor=none;fillColor=none;align=left;verticalAlign=middle;spacingLeft=4;spacingRight=4;overflow=hidden;points=[[0,0.5],[1,0.5]];portConstraint=eastwest;rotatable=0;rounded=0;sketch=0;fontSize=13;fontColor=#095C86;" vertex="1" parent="CtK_7Bi6tQCIyEXWH96h-24">
          <mxGeometry y="180" width="200" height="30" as="geometry" />
        </mxCell>
        <mxCell id="CtK_7Bi6tQCIyEXWH96h-23" value="No" style="text;html=1;strokeColor=none;fillColor=none;align=center;verticalAlign=middle;whiteSpace=wrap;rounded=0;sketch=0;fontSize=13;fontColor=#095C86;" vertex="1" parent="1">
          <mxGeometry x="610" y="440" width="60" height="30" as="geometry" />
        </mxCell>
        <mxCell id="CtK_7Bi6tQCIyEXWH96h-40" value="name used" style="text;html=1;strokeColor=none;fillColor=none;align=center;verticalAlign=middle;whiteSpace=wrap;rounded=0;sketch=0;fontSize=13;fontColor=#095C86;" vertex="1" parent="1">
          <mxGeometry x="560" y="350" width="70" height="30" as="geometry" />
        </mxCell>
        <mxCell id="CtK_7Bi6tQCIyEXWH96h-41" value="name&amp;nbsp; not used" style="text;html=1;strokeColor=none;fillColor=none;align=center;verticalAlign=middle;whiteSpace=wrap;rounded=0;sketch=0;fontSize=13;fontColor=#095C86;" vertex="1" parent="1">
          <mxGeometry x="505" y="350" width="55" height="30" as="geometry" />
        </mxCell>
        <mxCell id="CtK_7Bi6tQCIyEXWH96h-42" value="" style="strokeWidth=2;html=1;shape=mxgraph.flowchart.annotation_2;align=left;labelPosition=right;pointerEvents=1;rotation=90;fillColor=#F694C1;strokeColor=#AF45ED;fontColor=#095C86;" vertex="1" parent="1">
          <mxGeometry x="588" y="420" width="56" height="100" as="geometry" />
        </mxCell>
        <mxCell id="CtK_7Bi6tQCIyEXWH96h-50" value="SaveTrajectory" style="swimlane;fontStyle=0;childLayout=stackLayout;horizontal=1;startSize=30;horizontalStack=0;resizeParent=1;resizeParentMax=0;resizeLast=0;collapsible=1;marginBottom=0;rounded=0;shadow=0;glass=0;sketch=0;fontSize=13;strokeColor=#6c8ebf;fillColor=#dae8fc;" vertex="1" parent="1">
          <mxGeometry x="260" y="395" width="140" height="60" as="geometry" />
        </mxCell>
        <mxCell id="CtK_7Bi6tQCIyEXWH96h-51" value="saveTrajectory()" style="text;strokeColor=none;fillColor=none;align=left;verticalAlign=middle;spacingLeft=4;spacingRight=4;overflow=hidden;points=[[0,0.5],[1,0.5]];portConstraint=eastwest;rotatable=0;rounded=0;shadow=0;glass=0;sketch=0;fontSize=13;fontColor=#095C86;" vertex="1" parent="CtK_7Bi6tQCIyEXWH96h-50">
          <mxGeometry y="30" width="140" height="30" as="geometry" />
        </mxCell>
        <mxCell id="CtK_7Bi6tQCIyEXWH96h-59" style="edgeStyle=orthogonalEdgeStyle;curved=0;rounded=1;sketch=0;orthogonalLoop=1;jettySize=auto;html=1;fontSize=13;fontColor=#095C86;strokeColor=#60E696;fillColor=#F694C1;exitX=0.414;exitY=1.022;exitDx=0;exitDy=0;exitPerimeter=0;" edge="1" parent="1" source="CtK_7Bi6tQCIyEXWH96h-51" target="CtK_7Bi6tQCIyEXWH96h-24">
          <mxGeometry relative="1" as="geometry">
            <mxPoint x="300" y="490" as="sourcePoint" />
            <mxPoint x="330.05999999999995" y="369.34000000000003" as="targetPoint" />
          </mxGeometry>
        </mxCell>
      </root>
    </mxGraphModel>
  </diagram>
</mxfile>
